# This file uses centimeters as units for non-parametric coordinates.

g default
v -0.134731 -0.080788 0.170816
v -0.134775 0.042719 0.170816
v -0.056087 -0.080963 0.170816
v 0.070747 -0.071214 0.170816
v 0.039768 0.014599 0.170816
v 0.101387 -0.058037 0.170816
v 0.077995 -0.014979 0.170816
v 0.134773 -0.031569 0.170816
v -0.071316 0.060892 0.172485
v -0.013107 0.074047 0.170816
v 0.007084 -0.080500 0.170816
v 0.012672 0.069233 0.170816
v 0.043636 -0.078291 0.170816
v -0.134766 -0.077432 -0.172485
v -0.134775 0.067034 -0.172485
v -0.134775 0.008177 0.009396
v -0.134775 -0.074545 0.004942
v -0.134775 0.068343 -0.136070
v -0.134775 -0.081150 -0.132820
v -0.134775 0.041886 0.075438
v -0.134775 -0.075664 0.079049
v -0.134775 0.044013 0.109317
v -0.134775 -0.077746 0.130655
v -0.134775 0.024083 -0.050626
v -0.134775 -0.076381 -0.046584
v -0.134775 0.060390 -0.104348
v -0.134762 -0.079743 -0.092391
v 0.099659 -0.031217 -0.172485
v -0.090424 0.064348 -0.172485
v -0.042667 0.054303 -0.172485
v 0.001938 -0.049519 -0.172485
v -0.057766 0.059070 -0.172485
v -0.095985 -0.071366 -0.172485
v -0.025631 0.045363 -0.172485
v 0.053070 -0.039608 -0.172485
v -0.115372 -0.074822 -0.172485
v -0.050217 0.056686 -0.172485
v -0.047024 -0.060443 -0.172485
v -0.106899 -0.075699 -0.132634
v -0.081261 -0.072671 -0.132634
v -0.034073 -0.062993 -0.132634
v 0.011768 -0.052618 -0.132634
v 0.059975 -0.042240 -0.132634
v 0.104675 -0.031267 -0.132634
v -0.098431 -0.076577 -0.092391
v -0.066536 -0.073976 -0.092391
v -0.021122 -0.065542 -0.092391
v 0.021595 -0.055718 -0.092391
v 0.066875 -0.044873 -0.092391
v 0.109692 -0.031317 -0.092391
v -0.089962 -0.077454 -0.047647
v -0.051811 -0.075281 -0.047647
v -0.008171 -0.068092 -0.047647
v 0.031425 -0.058817 -0.047647
v 0.073780 -0.047506 -0.047647
v 0.114708 -0.031368 -0.047647
v -0.081493 -0.078331 0.007152
v -0.037086 -0.076585 0.007152
v 0.004784 -0.070642 0.007152
v 0.041256 -0.061916 0.007152
v 0.080681 -0.050138 0.007152
v 0.119724 -0.031418 0.007152
v -0.073025 -0.079208 0.079707
v -0.022362 -0.077890 0.079707
v 0.017735 -0.073192 0.079707
v 0.051086 -0.065015 0.079707
v 0.087582 -0.052771 0.079707
v 0.124741 -0.031469 0.079707
v -0.064556 -0.080086 0.130212
v -0.007641 -0.079195 0.130212
v 0.030685 -0.075741 0.130212
v 0.060917 -0.068114 0.130212
v 0.094486 -0.055404 0.130212
v 0.129757 -0.031519 0.130212
v 0.106800 -0.010231 0.109317
v 0.106804 -0.008843 0.075438
v 0.106804 -0.009909 0.009395
v 0.106804 -0.015730 -0.050626
v 0.106804 -0.019746 -0.104348
v 0.106804 -0.011794 -0.136070
v 0.005997 0.017292 0.109317
v 0.005997 0.020443 0.075438
v 0.005997 0.013109 0.009396
v 0.005997 0.008221 -0.050626
v 0.005997 0.041387 -0.104348
v 0.005997 0.049340 -0.136070
v -0.029198 0.036587 0.109317
v -0.029198 0.033558 0.075438
v -0.029198 0.016245 0.009396
v -0.029198 0.034624 -0.050626
v -0.029198 0.066498 -0.104348
v -0.029198 0.074450 -0.136070
v -0.064388 0.045797 0.109317
v -0.064388 0.043670 0.075438
v -0.064388 0.018145 0.009396
v -0.064388 0.036307 -0.050626
v -0.064388 0.060390 -0.104348
v -0.064388 0.068343 -0.136070
v -0.099583 0.045077 0.109317
v -0.099583 0.042950 0.075438
v -0.099583 0.016129 0.009396
v -0.099583 0.032036 -0.050626
v -0.099583 0.073197 -0.104348
v -0.099583 0.081150 -0.136070
vt 0.500000 0.000000
vt 0.750000 1.000000
vt 1.000000 1.000000
vt 0.000000 1.000000
vt 0.000000 0.000000
vt 1.000000 0.000000
vt 1.000000 1.000000
vt 0.000000 1.000000
vt 0.000000 0.000000
vt 1.000000 0.000000
vt 1.000000 1.000000
vt 0.000000 0.000000
vt 0.000000 1.000000
vt 0.875000 0.000000
vt 0.937500 1.000000
vt 0.625000 0.000000
vt 0.812500 1.000000
vt 0.000000 0.000000
vt 1.000000 0.000000
vt 1.000000 0.125000
vt 0.000000 0.125000
vt 0.000000 0.500000
vt 1.000000 0.500000
vt 1.000000 0.625000
vt 0.000000 0.625000
vt 0.000000 0.750000
vt 1.000000 0.750000
vt 1.000000 1.000000
vt 0.000000 1.000000
vt 0.000000 0.250000
vt 1.000000 0.250000
vt 1.000000 0.687500
vt 0.000000 0.687500
vt 0.937500 1.000000
vt 1.000000 1.000000
vt 0.875000 0.000000
vt 0.625000 0.000000
vt 0.000000 0.000000
vt 0.000000 1.000000
vt 0.250000 1.000000
vt 0.812500 1.000000
vt 0.875000 1.000000
vt 0.750000 0.000000
vt 0.312500 0.000000
vt 0.843750 1.000000
vt 0.687500 0.000000
vt 0.000000 0.000000
vt 0.339286 0.000000
vt 0.625000 0.000000
vt 0.714286 0.000000
vt 0.785714 0.000000
vt 0.785714 0.142857
vt 0.892857 0.000000
vt 0.892857 0.142857
vt 1.000000 1.000000
vt 0.000000 0.000000
vt 0.366071 0.000000
vt 0.625000 0.000000
vt 0.741071 0.000000
vt 0.821429 0.000000
vt 0.821429 0.285714
vt 0.910714 0.000000
vt 0.910714 0.285714
vt 1.000000 1.000000
vt 0.000000 0.000000
vt 0.392857 0.000000
vt 0.625000 0.000000
vt 0.767857 0.000000
vt 0.857143 0.000000
vt 0.857143 0.428571
vt 0.928571 0.000000
vt 0.928571 0.428571
vt 1.000000 1.000000
vt 0.000000 0.000000
vt 0.419643 0.000000
vt 0.625000 0.000000
vt 0.794643 0.000000
vt 0.892857 0.000000
vt 0.892857 0.571429
vt 0.946429 0.000000
vt 0.946429 0.571429
vt 1.000000 1.000000
vt 0.000000 0.000000
vt 0.446429 0.000000
vt 0.625000 0.000000
vt 0.821429 0.000000
vt 0.928571 0.000000
vt 0.928571 0.714286
vt 0.964286 0.000000
vt 0.964286 0.714286
vt 1.000000 1.000000
vt 0.000000 0.000000
vt 0.473214 0.000000
vt 0.625000 0.000000
vt 0.848214 0.000000
vt 0.964286 0.000000
vt 0.964286 0.857143
vt 0.982143 0.000000
vt 0.982143 0.857143
vt 1.000000 1.000000
vt 0.000000 0.000000
vt 1.000000 0.000000
vt 1.000000 1.000000
vt 0.000000 1.000000
vt 0.000000 0.000000
vt 1.000000 0.000000
vt 1.000000 1.000000
vt 0.000000 1.000000
vt 0.000000 0.000000
vt 1.000000 0.000000
vt 1.000000 1.000000
vt 0.000000 1.000000
vt 0.000000 0.000000
vt 1.000000 0.000000
vt 1.000000 1.000000
vt 0.000000 1.000000
vt 0.000000 0.000000
vt 1.000000 0.000000
vt 1.000000 1.000000
vt 0.000000 1.000000
vt 0.000000 0.000000
vt 1.000000 0.000000
vt 1.000000 1.000000
vt 0.000000 1.000000
vt 0.000000 0.000000
vt 1.000000 0.000000
vt 1.000000 1.000000
vt 0.000000 1.000000
vt 1.000000 0.833333
vt 1.000000 0.833333
vt 0.000000 0.833333
vt 1.000000 0.833333
vt 0.000000 0.833333
vt 1.000000 0.833333
vt 0.000000 0.833333
vt 1.000000 0.833333
vt 0.000000 0.833333
vt 1.000000 0.833333
vt 0.000000 0.833333
vt 1.000000 0.833333
vt 0.000000 0.833333
vt 0.000000 0.833333
vt 1.000000 0.666667
vt 1.000000 0.666667
vt 0.000000 0.666667
vt 1.000000 0.666667
vt 0.000000 0.666667
vt 1.000000 0.666667
vt 0.000000 0.666667
vt 1.000000 0.666667
vt 0.000000 0.666667
vt 1.000000 0.666667
vt 0.000000 0.666667
vt 1.000000 0.666667
vt 0.000000 0.666667
vt 0.000000 0.666667
vt 1.000000 0.500000
vt 1.000000 0.500000
vt 0.000000 0.500000
vt 1.000000 0.500000
vt 0.000000 0.500000
vt 1.000000 0.500000
vt 0.000000 0.500000
vt 1.000000 0.500000
vt 0.000000 0.500000
vt 1.000000 0.500000
vt 0.000000 0.500000
vt 1.000000 0.500000
vt 0.000000 0.500000
vt 0.000000 0.500000
vt 1.000000 0.333333
vt 1.000000 0.333333
vt 0.000000 0.333333
vt 1.000000 0.333333
vt 0.000000 0.333333
vt 1.000000 0.333333
vt 0.000000 0.333333
vt 1.000000 0.333333
vt 0.000000 0.333333
vt 1.000000 0.333333
vt 0.000000 0.333333
vt 1.000000 0.333333
vt 0.000000 0.333333
vt 0.000000 0.333333
vt 1.000000 0.166667
vt 1.000000 0.166667
vt 0.000000 0.166667
vt 1.000000 0.166667
vt 0.000000 0.166667
vt 1.000000 0.166667
vt 0.000000 0.166667
vt 1.000000 0.166667
vt 0.000000 0.166667
vt 1.000000 0.166667
vt 0.000000 0.166667
vt 1.000000 0.166667
vt 0.000000 0.166667
vt 0.000000 0.166667
vn 0.002241 -0.005356 0.999983
vn 0.002573 -0.005316 0.999983
vn -0.010868 -0.006914 0.999917
vn -0.010868 -0.006914 0.999917
vn 0.000000 0.000000 1.000000
vn 0.000000 0.000000 1.000000
vn 0.000000 0.000000 1.000000
vn 0.000000 0.000000 1.000000
vn 0.000000 0.000000 1.000000
vn 0.000000 0.000000 1.000000
vn 0.000000 0.000000 1.000000
vn 0.000000 0.000000 1.000000
vn 0.000000 0.000000 1.000000
vn 0.000000 0.000000 1.000000
vn 0.000000 0.000000 1.000000
vn 0.008977 -0.002489 0.999957
vn 0.009884 -0.002741 0.999947
vn -1.000000 -0.000142 0.000425
vn -1.000000 -0.000142 0.000425
vn -1.000000 -0.000071 0.000212
vn -1.000000 -0.000088 0.000264
vn -1.000000 0.000000 0.000000
vn -1.000000 0.000000 0.000000
vn -1.000000 -0.000044 -0.000104
vn -1.000000 -0.000035 -0.000084
vn -1.000000 -0.000035 0.000027
vn -1.000000 -0.000035 0.000009
vn -1.000000 -0.000034 -0.000126
vn -1.000000 -0.000034 -0.000126
vn -1.000000 0.000000 0.000000
vn -1.000000 0.000000 0.000000
vn -1.000000 -0.000047 0.000065
vn -1.000000 -0.000052 -0.000000
vn 0.000000 0.000000 -1.000000
vn 0.000000 0.000000 -1.000000
vn 0.000000 0.000000 -1.000000
vn 0.000000 0.000000 -1.000000
vn 0.000000 0.000000 -1.000000
vn 0.000000 0.000000 -1.000000
vn 0.000000 0.000000 -1.000000
vn 0.000000 0.000000 -1.000000
vn 0.000000 0.000000 -1.000000
vn -0.000000 0.000000 -1.000000
vn -0.000000 0.000000 -1.000000
vn -0.000000 0.000000 -1.000000
vn -0.000000 0.000000 -1.000000
vn 0.587624 -0.801246 -0.112705
vn 0.587624 -0.801246 -0.112705
vn 0.552916 -0.827637 -0.096437
vn 0.556418 -0.825095 -0.098063
vn 0.370188 -0.918182 -0.141076
vn 0.370189 -0.918182 -0.141076
vn 0.347372 -0.929930 -0.120673
vn 0.350775 -0.928253 -0.123703
vn 0.246098 -0.959685 -0.135794
vn 0.246098 -0.959685 -0.135794
vn 0.241978 -0.963134 -0.117557
vn 0.242855 -0.962435 -0.121410
vn 0.075194 -0.994506 -0.072830
vn 0.075194 -0.994506 -0.072830
vn 0.093749 -0.993244 -0.068396
vn 0.088637 -0.993628 -0.069621
vn 0.011273 -0.999484 -0.030075
vn 0.011273 -0.999484 -0.030075
vn 0.016698 -0.999472 -0.027864
vn 0.015233 -0.999479 -0.028461
vn -0.017016 -0.998765 -0.046676
vn -0.017016 -0.998765 -0.046676
vn -0.031504 -0.998877 -0.035384
vn -0.029977 -0.998881 -0.036575
vn 0.145673 -0.988826 -0.031660
vn 0.147888 -0.988352 -0.035917
vn 0.167917 -0.982969 -0.074674
vn 0.167917 -0.982969 -0.074674
vn 0.112210 -0.991905 -0.059450
vn 0.119892 -0.990865 -0.061750
vn 0.142200 -0.987470 -0.068421
vn 0.142200 -0.987470 -0.068421
vn 0.197913 -0.973432 -0.115152
vn 0.201382 -0.972556 -0.116536
vn 0.208024 -0.970835 -0.119185
vn 0.208024 -0.970835 -0.119185
vn 0.219070 -0.966952 -0.130434
vn 0.218559 -0.967058 -0.130504
vn 0.217310 -0.967316 -0.130674
vn 0.217310 -0.967316 -0.130674
vn 0.210189 -0.971067 -0.113352
vn 0.207706 -0.971642 -0.113007
vn 0.198864 -0.973632 -0.111774
vn 0.198864 -0.973632 -0.111774
vn 0.240389 -0.968280 -0.068167
vn 0.235040 -0.969641 -0.067474
vn 0.207075 -0.976240 -0.063837
vn 0.207075 -0.976240 -0.063837
vn 0.064251 -0.997843 0.013453
vn 0.070763 -0.997427 0.011478
vn 0.077462 -0.995926 -0.046156
vn 0.082213 -0.995445 -0.048273
vn 0.179418 -0.978461 -0.102098
vn 0.183010 -0.977452 -0.105330
vn 0.222762 -0.967039 -0.123337
vn 0.222157 -0.966943 -0.125173
vn 0.233178 -0.966125 -0.110593
vn 0.230562 -0.966659 -0.111406
vn 0.305031 -0.949593 -0.072309
vn 0.300000 -0.951199 -0.072253
vn -0.021719 -0.999613 0.017400
vn -0.018888 -0.999662 0.017851
vn 0.054021 -0.997968 -0.033780
vn 0.056894 -0.997750 -0.035458
vn 0.159303 -0.983856 -0.081544
vn 0.162736 -0.982976 -0.085295
vn 0.227242 -0.968042 -0.106094
vn 0.226620 -0.967887 -0.108806
vn 0.259124 -0.960837 -0.098221
vn 0.256622 -0.961356 -0.099700
vn 0.371173 -0.926019 -0.068692
vn 0.366971 -0.927660 -0.069133
vn -0.058823 -0.998266 -0.002384
vn -0.057935 -0.998320 -0.000905
vn 0.037175 -0.999036 -0.023357
vn 0.038853 -0.998946 -0.024433
vn 0.137266 -0.988762 -0.059226
vn 0.140291 -0.988158 -0.062154
vn 0.232423 -0.968986 -0.083938
vn 0.231860 -0.968912 -0.086323
vn 0.288277 -0.954177 -0.080267
vn 0.286101 -0.954715 -0.081644
vn 0.437606 -0.897219 -0.059150
vn 0.434477 -0.898703 -0.059690
vn -0.054074 -0.998384 -0.017462
vn -0.055045 -0.998345 -0.016673
vn 0.026185 -0.999385 -0.023335
vn 0.027581 -0.999364 -0.022603
vn 0.116832 -0.991461 -0.057919
vn 0.120282 -0.991168 -0.055841
vn 0.236898 -0.967441 -0.089087
vn 0.236358 -0.967887 -0.085613
vn 0.314819 -0.945101 -0.087601
vn 0.312495 -0.946106 -0.085035
vn 0.491899 -0.868027 -0.067562
vn 0.488961 -0.869793 -0.066159
vn -0.145986 0.986885 -0.068889
vn -0.189758 0.979258 -0.071033
vn -0.162678 0.969417 -0.183754
vn -0.133541 0.984340 -0.115075
vn -0.226399 0.882506 0.412221
vn -0.213405 0.944365 0.250265
vn -0.151727 0.953238 0.261375
vn -0.116432 0.901265 0.417331
vn -0.122086 0.959480 -0.253954
vn -0.226625 0.973394 -0.033845
vn 0.013550 0.999322 -0.034246
vn 0.083970 0.958536 -0.272319
vn -0.115669 0.902988 -0.413804
vn -0.090103 0.947151 -0.307874
vn -0.060719 0.955143 -0.289852
vn -0.077836 0.916450 -0.392506
vn -0.266766 0.839221 0.473861
vn -0.045330 0.896564 0.440588
vn 0.412618 0.909250 0.054875
vn 0.383965 0.921148 0.063691
vn 0.396092 0.908238 0.134961
vn 0.462946 0.879862 0.107350
vn 0.395575 0.918150 -0.022811
vn 0.784905 0.618720 -0.033325
vn 0.395197 0.916782 -0.057715
vn 0.819817 0.571625 -0.033858
vn 0.404620 0.912385 0.061942
vn 0.334958 0.938242 -0.086630
vn 0.871108 0.487094 -0.062538
vn 0.894764 0.442160 -0.062385
vn 0.521366 0.827924 0.206688
vn 0.959165 0.275553 -0.063827
vn 0.590352 0.792449 -0.153323
vn 0.664766 0.608278 -0.433687
vn 0.460513 0.750474 -0.474042
vn 0.549512 0.687615 -0.474577
vn 0.483124 0.857942 -0.174719
vn 0.500733 0.850468 -0.161152
vn 0.267652 0.962458 -0.045122
vn 0.243474 0.965568 -0.091644
vn 0.349862 0.927701 0.130260
vn 0.271119 0.961909 -0.035025
vn 0.474654 0.835687 0.276281
vn 0.521738 0.841409 -0.140784
vn 0.450808 0.725464 -0.520072
vn 0.421817 0.807825 -0.411691
vn 0.508798 0.658627 -0.554378
vn 0.245221 0.953611 -0.174625
vn 0.191297 0.951173 -0.242231
vn 0.268523 0.896377 0.352710
vn 0.226732 0.953715 0.197533
vn 0.261661 0.886297 0.382113
vn 0.286571 0.953820 -0.090022
vn 0.175789 0.870894 -0.458958
vn -0.006473 0.966526 -0.256487
vn 0.071168 0.889520 -0.451321
vn 0.082345 0.964592 -0.250561
vn 0.061841 0.938990 -0.338341
vn 0.004389 0.920543 0.390616
vn -0.018443 0.959207 0.282104
vn 0.047331 0.908886 0.414350
vn 0.121785 0.992306 -0.022315
vn 0.099476 0.946371 -0.307385
s 1
g Second_Layer done1
f 3/1/1 9/2/2 2/13/3 1/12/4
s off
f 7/8/5 5/5/6 4/6/7 6/7/8
f 8/11/9 7/9/10 6/10/11
s 1
f 5/4/12 12/15/13 13/14/14 4/3/15
f 3/1/1 11/16/16 10/17/17 9/2/2
f 11/16/16 13/14/14 12/15/13 10/17/17
s 3
f 1/18/18 2/19/19 22/20/20 23/21/21
f 17/22/22 16/23/23 24/24/24 25/25/25
f 19/26/26 18/27/27 15/28/28 14/29/29
f 21/30/30 20/31/31 16/23/23 17/22/22
f 23/21/21 22/20/20 20/31/31 21/30/30
f 25/25/25 24/24/24 26/32/32 27/33/33
f 27/33/33 26/32/32 18/27/27 19/26/26
s 6
f 34/34/34 28/35/35 35/36/36
f 29/40/37 36/44/38 14/38/39 15/39/40
f 33/37/41 32/41/42 37/45/43 38/46/44
f 31/43/45 30/42/46 34/34/34 35/36/36
f 33/37/41 36/44/38 29/40/37 32/41/42
f 38/46/44 37/45/43 30/42/46 31/43/45
s 8
f 8/11/47 6/10/48 73/98/49 74/100/50
s 9
f 6/7/51 4/6/52 72/96/53 73/99/54
s 10
f 4/3/55 13/14/56 71/95/57 72/97/58
s 11
f 13/14/59 11/16/60 70/94/61 71/95/62
s 12
f 11/16/63 3/1/64 69/93/65 70/94/66
s 13
f 3/1/67 1/12/68 23/92/69 69/93/70
f 39/48/71 19/47/72 14/38/73 36/44/74
s 12
f 40/49/75 39/48/76 36/44/77 33/37/78
s 11
f 41/50/79 40/49/80 33/37/81 38/46/82
s 10
f 42/52/83 41/50/84 38/46/85 31/43/86
s 9
f 43/54/87 42/51/88 31/43/89 35/36/90
s 8
f 44/55/91 43/53/92 35/36/93 28/35/94
s 13
f 45/57/95 27/56/96 19/47/72 39/48/71
s 12
f 46/58/97 45/57/98 39/48/76 40/49/75
s 11
f 47/59/99 46/58/100 40/49/80 41/50/79
s 10
f 48/61/101 47/59/102 41/50/84 42/52/83
s 9
f 49/63/103 48/60/104 42/51/88 43/54/87
s 8
f 50/64/105 49/62/106 43/53/92 44/55/91
s 13
f 51/66/107 25/65/108 27/56/96 45/57/95
s 12
f 52/67/109 51/66/110 45/57/98 46/58/97
s 11
f 53/68/111 52/67/112 46/58/100 47/59/99
s 10
f 54/70/113 53/68/114 47/59/102 48/61/101
s 9
f 55/72/115 54/69/116 48/60/104 49/63/103
s 8
f 56/73/117 55/71/118 49/62/106 50/64/105
s 13
f 57/75/119 17/74/120 25/65/108 51/66/107
s 12
f 58/76/121 57/75/122 51/66/110 52/67/109
s 11
f 59/77/123 58/76/124 52/67/112 53/68/111
s 10
f 60/79/125 59/77/126 53/68/114 54/70/113
s 9
f 61/81/127 60/78/128 54/69/116 55/72/115
s 8
f 62/82/129 61/80/130 55/71/118 56/73/117
s 13
f 63/84/131 21/83/132 17/74/120 57/75/119
s 12
f 64/85/133 63/84/134 57/75/122 58/76/121
s 11
f 65/86/135 64/85/136 58/76/124 59/77/123
s 10
f 66/88/137 65/86/138 59/77/126 60/79/125
s 9
f 67/90/139 66/87/140 60/78/128 61/81/127
s 8
f 68/91/141 67/89/142 61/80/130 62/82/129
s 13
f 69/93/70 23/92/69 21/83/132 63/84/131
s 12
f 70/94/66 69/93/65 63/84/134 64/85/133
s 11
f 71/95/62 70/94/61 64/85/136 65/86/135
s 10
f 72/97/58 71/95/57 65/86/138 66/88/137
s 9
f 73/99/54 72/96/53 66/87/140 67/90/139
s 8
f 74/100/50 73/98/49 67/89/142 68/91/141
s 20
f 22/101/143 2/102/144 9/185/145 99/187/146
s 21
f 24/105/147 16/106/148 101/190/149 102/193/150
f 15/109/151 18/110/152 104/196/153 29/198/154
s 20
f 16/113/155 20/114/156 100/188/157 101/191/158
f 20/117/156 22/118/143 99/186/146 100/189/157
s 21
f 26/121/159 24/122/147 102/192/150 103/195/160
f 18/125/152 26/126/159 103/194/160 104/197/153
s 20
f 75/131/161 7/129/162 8/103/163 74/104/164
f 76/133/165 75/130/161 74/119/164 68/120/166
f 77/135/167 76/132/165 68/115/166 62/116/168
s 21
f 78/137/169 77/134/170 62/107/171 56/108/172
f 79/139/173 78/136/169 56/123/172 50/124/174
f 80/141/175 79/138/173 50/127/174 44/128/176
f 34/142/177 80/140/175 44/111/176 28/112/178
s 20
f 81/145/179 5/143/180 7/129/162 75/131/161
f 82/147/181 81/144/179 75/130/161 76/133/165
f 83/149/182 82/146/181 76/132/165 77/135/167
s 21
f 84/151/183 83/148/184 77/134/170 78/137/169
f 85/153/185 84/150/183 78/136/169 79/139/173
f 86/155/186 85/152/185 79/138/173 80/141/175
f 30/156/187 86/154/186 80/140/175 34/142/177
s 20
f 87/159/188 12/157/189 5/143/180 81/145/179
f 88/161/190 87/158/188 81/144/179 82/147/181
f 89/163/191 88/160/190 82/146/181 83/149/182
s 21
f 90/165/192 89/162/193 83/148/184 84/151/183
f 91/167/194 90/164/192 84/150/183 85/153/185
f 92/169/195 91/166/194 85/152/185 86/155/186
f 37/170/196 92/168/195 86/154/186 30/156/187
s 20
f 93/173/197 10/171/198 12/157/189 87/159/188
f 94/175/199 93/172/197 87/158/188 88/161/190
f 95/177/200 94/174/199 88/160/190 89/163/191
s 21
f 96/179/201 95/176/202 89/162/193 90/165/192
f 97/181/203 96/178/201 90/164/192 91/167/194
f 98/183/204 97/180/203 91/166/194 92/169/195
f 32/184/205 98/182/204 92/168/195 37/170/196
s 20
f 99/187/146 9/185/145 10/171/198 93/173/197
f 100/189/157 99/186/146 93/172/197 94/175/199
f 101/191/158 100/188/157 94/174/199 95/177/200
s 21
f 102/193/150 101/190/149 95/176/202 96/179/201
f 103/195/160 102/192/150 96/178/201 97/181/203
f 104/197/153 103/194/160 97/180/203 98/183/204
f 29/198/154 104/196/153 98/182/204 32/184/205
